<?xml version="1.0" encoding="UTF-8" standalone="no"?>
<!DOCTYPE svg PUBLIC "-//W3C//DTD SVG 1.1//EN" "http://www.w3.org/Graphics/SVG/1.1/DTD/svg11.dtd">
<svg width="100%" height="100%" viewBox="0 0 134 130" version="1.1" xmlns="http://www.w3.org/2000/svg" xmlns:xlink="http://www.w3.org/1999/xlink" xml:space="preserve" xmlns:serif="http://www.serif.com/" style="fill-rule:evenodd;clip-rule:evenodd;stroke-linejoin:round;stroke-miterlimit:2;">
    <g transform="matrix(5.55556,0,0,5.55556,0,-1.66667)">
        <path d="M19.75,0.3L4.25,0.3C1.9,0.3 0,2.2 0,4.55L0,19.45C0,21.8 1.9,23.7 4.25,23.7L19.75,23.7C22.1,23.7 24,21.8 24,19.45L24,4.55C24,2.2 22.1,0.3 19.75,0.3ZM22.99,19.06C22.99,19.066 22.99,19.071 22.99,19.077C22.99,21.063 21.356,22.698 19.37,22.7L4.63,22.7C2.63,22.7 1,21.07 1,19.07L1,4.93C1,2.93 2.63,1.3 4.63,1.3L19.36,1.3C21.351,1.3 22.99,2.939 22.99,4.93L22.99,19.06ZM9.49,11.25L12.29,16.63C12.34,16.71 12.31,16.79 12.23,16.79L10.49,16.79C10.38,16.79 10.33,16.76 10.28,16.66C9.64,15.34 8.99,14.02 8.32,12.6L8.3,12.6C7.7,13.94 7.04,15.35 6.4,16.67C6.35,16.75 6.3,16.78 6.22,16.78L4.57,16.78C4.47,16.78 4.46,16.7 4.51,16.64L7.25,11.42L4.6,6.14C4.54,6.06 4.6,6 4.66,6L6.38,6C6.48,6 6.52,6.02 6.56,6.11C7.19,7.43 7.83,8.79 8.43,10.12L8.45,10.12C9.03,8.8 9.67,7.43 10.29,6.12C10.34,6.04 10.37,5.99 10.47,5.99L12.08,5.99C12.16,5.99 12.19,6.05 12.14,6.13L9.49,11.25ZM12.78,12.88C12.78,10.55 14.33,8.73 16.79,8.73C17,8.73 17.11,8.73 17.31,8.75L17.31,6.1C17.31,6.04 17.36,6 17.41,6L18.99,6C19.07,6 19.09,6.03 19.09,6.08L19.09,15.26C19.09,15.53 19.09,15.87 19.14,16.24C19.14,16.3 19.12,16.32 19.06,16.35C18.22,16.75 17.34,16.93 16.5,16.93C14.33,16.94 12.78,15.6 12.78,12.88ZM17.31,10.32C17.17,10.26 16.97,10.22 16.73,10.22C15.47,10.22 14.59,11.19 14.59,12.8C14.59,14.64 15.49,15.38 16.62,15.38C16.86,15.38 17.12,15.35 17.31,15.27L17.31,10.32Z" style="fill:rgb(255,38,190);fill-rule:nonzero;"/>
    </g>
</svg>
