<?xml version="1.0" encoding="UTF-8" standalone="no"?>
<!DOCTYPE svg PUBLIC "-//W3C//DTD SVG 1.1//EN" "http://www.w3.org/Graphics/SVG/1.1/DTD/svg11.dtd">
<svg width="100%" height="100%" viewBox="0 0 134 130" version="1.1" xmlns="http://www.w3.org/2000/svg" xmlns:xlink="http://www.w3.org/1999/xlink" xml:space="preserve" xmlns:serif="http://www.serif.com/" style="fill-rule:evenodd;clip-rule:evenodd;stroke-linejoin:round;stroke-miterlimit:2;">
    <g transform="matrix(5.55556,0,0,5.55556,0,-1.66667)">
        <rect x="4.338" y="4.117" width="16.01" height="14.333"/>
        <path d="M10.53,10.73C10.43,10.42 10.34,10.12 10.24,9.81C10.14,9.5 10.05,9.21 9.97,8.92C9.89,8.64 9.82,8.38 9.75,8.14L9.73,8.14C9.64,8.57 9.53,9 9.39,9.43C9.24,9.91 9.09,10.41 8.93,10.91C8.79,11.42 8.64,11.89 8.49,12.31L11.03,12.31C10.97,12.099 10.89,11.85 10.8,11.589C10.71,11.32 10.62,11.03 10.53,10.73ZM19.75,0.3L4.25,0.3C1.9,0.3 0,2.2 0,4.55L0,19.45C0,21.8 1.9,23.7 4.25,23.7L19.75,23.7C22.1,23.7 24,21.8 24,19.45L24,4.55C24,2.2 22.1,0.3 19.75,0.3ZM14.7,16.83L12.609,16.83C12.54,16.84 12.47,16.79 12.45,16.72L11.63,14.34L7.91,14.34L7.15,16.69C7.13,16.78 7.05,16.84 6.96,16.831L5.08,16.831C4.97,16.831 4.94,16.77 4.97,16.651L8.19,7.38C8.22,7.28 8.25,7.17 8.29,7.05C8.33,6.84 8.35,6.62 8.35,6.4C8.34,6.35 8.38,6.3 8.43,6.29L11.02,6.29C11.1,6.29 11.14,6.32 11.15,6.37L14.8,16.67C14.83,16.779 14.8,16.83 14.7,16.83ZM18.1,16.68C18.1,16.79 18.061,16.84 17.971,16.84L16.01,16.84C15.91,16.84 15.86,16.779 15.86,16.68L15.86,8.98C15.86,8.88 15.901,8.84 15.991,8.84L17.971,8.84C18.061,8.84 18.1,8.89 18.1,8.98L18.1,16.68ZM17.891,7.65C17.66,7.89 17.32,8.02 16.98,8C16.65,8.01 16.33,7.88 16.089,7.65C15.859,7.4 15.739,7.07 15.749,6.73C15.739,6.39 15.869,6.07 16.108,5.84C16.35,5.61 16.67,5.49 17,5.49C17.391,5.49 17.689,5.61 17.91,5.84C18.13,6.08 18.25,6.4 18.24,6.73C18.25,7.07 18.13,7.4 17.891,7.65Z" style="fill:rgb(255,154,0);fill-rule:nonzero;"/>
    </g>
</svg>
