<?xml version="1.0" encoding="UTF-8" standalone="no"?>
<!DOCTYPE svg PUBLIC "-//W3C//DTD SVG 1.1//EN" "http://www.w3.org/Graphics/SVG/1.1/DTD/svg11.dtd">
<svg width="100%" height="100%" viewBox="0 0 134 134" version="1.1" xmlns="http://www.w3.org/2000/svg" xmlns:xlink="http://www.w3.org/1999/xlink" xml:space="preserve" xmlns:serif="http://www.serif.com/" style="fill-rule:evenodd;clip-rule:evenodd;stroke-linejoin:round;stroke-miterlimit:2;">
    <g transform="matrix(5.55556,0,0,5.55556,4.46736e-09,2.97688e-11)">
        <path d="M10.44,0L0,18.083L0,23.28C-0,23.672 0.321,23.996 0.713,24L10.736,24L5.7,15.277L14.52,0L10.44,0ZM15.6,0L10.74,8.418L14.458,14.857L24,14.857L24,0.718C23.999,0.324 23.674,-0 23.28,0L15.6,0ZM10.2,9.353L8.136,12.928C7.906,13.326 7.906,13.818 8.136,14.216C8.366,14.616 8.792,14.856 9.253,14.856L13.378,14.856L10.2,9.353ZM7.078,15.793L11.816,24L23.287,24C23.679,23.996 23.999,23.674 24,23.282L24,15.792L7.078,15.793Z" style="fill:rgb(27,114,190);fill-rule:nonzero;"/>
    </g>
</svg>
