<?xml version="1.0" encoding="UTF-8" standalone="no"?>
<!DOCTYPE svg PUBLIC "-//W3C//DTD SVG 1.1//EN" "http://www.w3.org/Graphics/SVG/1.1/DTD/svg11.dtd">
<svg width="100%" height="100%" viewBox="0 0 134 130" version="1.1" xmlns="http://www.w3.org/2000/svg" xmlns:xlink="http://www.w3.org/1999/xlink" xml:space="preserve" xmlns:serif="http://www.serif.com/" style="fill-rule:evenodd;clip-rule:evenodd;stroke-linejoin:round;stroke-miterlimit:2;">
    <g id="Artboard1" transform="matrix(1,0,0,1,-170.003,12.6913)">
        <rect x="170.003" y="-12.691" width="134" height="130" style="fill:none;"/>
        <clipPath id="_clip1">
            <rect x="170.003" y="-12.691" width="134" height="130"/>
        </clipPath>
        <g clip-path="url(#_clip1)">
            <g transform="matrix(5.58548,0,0,5.58548,170.003,-14.7282)">
                <path d="M6.938,4.503C7.64,4.503 8.278,4.563 8.858,4.691C9.435,4.821 9.928,5.021 10.343,5.301C10.753,5.581 11.076,5.951 11.303,6.421C11.528,6.891 11.643,7.471 11.643,8.151C11.643,8.891 11.473,9.511 11.136,10.011C10.798,10.511 10.299,10.911 9.634,11.231C10.54,11.491 11.21,11.951 11.656,12.601C12.104,13.261 12.321,14.051 12.321,14.961C12.321,15.711 12.191,16.351 11.911,16.891C11.631,17.441 11.241,17.891 10.751,18.241C10.271,18.589 9.701,18.841 9.081,19.008C8.471,19.173 7.829,19.262 7.171,19.262L0,19.262L0,4.51L6.938,4.51L6.938,4.503ZM16.94,16.665C17.38,17.093 18.013,17.308 18.834,17.308C19.424,17.308 19.934,17.16 20.364,16.861C20.788,16.571 21.044,16.251 21.144,15.921L23.732,15.921C23.329,17.201 22.684,18.121 21.832,18.671C20.982,19.231 19.948,19.501 18.752,19.501C17.915,19.501 17.168,19.371 16.48,19.101C15.807,18.831 15.24,18.451 14.76,17.961C14.296,17.471 13.937,16.881 13.683,16.191C13.43,15.501 13.31,14.741 13.31,13.921C13.31,13.118 13.445,12.381 13.713,11.691C13.983,10.991 14.357,10.411 14.833,9.901C15.328,9.391 15.896,9.006 16.569,8.707C17.242,8.408 17.969,8.274 18.789,8.274C19.699,8.274 20.479,8.438 21.169,8.797C21.839,9.137 22.389,9.617 22.829,10.197C23.269,10.783 23.579,11.457 23.769,12.217C23.959,12.967 24.019,13.757 23.979,14.597L16.289,14.597C16.289,15.437 16.569,16.229 16.999,16.662L16.919,16.692L16.94,16.665ZM6.7,16.715C7.017,16.715 7.32,16.685 7.606,16.622C7.896,16.562 8.154,16.457 8.369,16.322C8.579,16.187 8.759,15.994 8.889,15.739C9.019,15.499 9.079,15.169 9.079,14.779C9.079,14.029 8.859,13.489 8.439,13.159C8.009,12.839 7.449,12.679 6.749,12.679L3.24,12.679L3.24,16.729L6.7,16.729L6.7,16.699L6.7,16.715ZM20.307,11.065C19.955,10.68 19.367,10.473 18.65,10.473C18.182,10.473 17.795,10.547 17.484,10.711C17.182,10.861 16.934,11.061 16.744,11.301C16.554,11.541 16.427,11.781 16.352,12.051C16.277,12.311 16.232,12.551 16.217,12.761L20.979,12.761C20.909,12.011 20.649,11.461 20.299,11.071L20.299,11.081L20.307,11.065ZM6.52,10.45C7.094,10.45 7.57,10.316 7.945,10.038C8.319,9.768 8.499,9.318 8.499,8.7C8.499,8.356 8.429,8.075 8.319,7.854C8.189,7.634 8.019,7.464 7.819,7.342C7.609,7.218 7.369,7.132 7.099,7.085C6.829,7.032 6.539,7.011 6.259,7.011L3.23,7.011L3.23,10.451L6.52,10.451L6.52,10.45ZM15.618,5.492L21.586,5.492L21.586,6.946L15.618,6.946L15.618,5.48L15.618,5.492Z" style="fill:rgb(23,105,255);fill-rule:nonzero;"/>
            </g>
        </g>
    </g>
</svg>
