<?xml version="1.0" encoding="UTF-8" standalone="no"?>
<!DOCTYPE svg PUBLIC "-//W3C//DTD SVG 1.1//EN" "http://www.w3.org/Graphics/SVG/1.1/DTD/svg11.dtd">
<svg width="100%" height="100%" viewBox="0 0 97 134" version="1.1" xmlns="http://www.w3.org/2000/svg" xmlns:xlink="http://www.w3.org/1999/xlink" xml:space="preserve" xmlns:serif="http://www.serif.com/" style="fill-rule:evenodd;clip-rule:evenodd;stroke-linejoin:round;stroke-miterlimit:2;">
    <g transform="matrix(5.55556,0,0,5.55556,-18.4222,0.00235279)">
        <path d="M3.89,15.672L6.255,0.461C6.295,0.197 6.524,-0 6.791,-0C6.991,-0 7.176,0.111 7.27,0.288L9.813,5.059L3.89,15.672ZM20.684,19.364L18.434,5.364C18.393,5.102 18.165,4.907 17.9,4.907C17.756,4.907 17.617,4.966 17.515,5.069L3.316,19.365L11.172,23.792C11.665,24.069 12.267,24.069 12.76,23.792L20.684,19.364ZM14.3,7.147L12.48,3.665C12.387,3.487 12.201,3.375 12,3.375C11.799,3.375 11.613,3.487 11.52,3.665L3.53,17.984L14.3,7.147Z" style="fill:rgb(255,202,40);fill-rule:nonzero;"/>
    </g>
</svg>
