<?xml version="1.0" encoding="UTF-8" standalone="no"?>
<!DOCTYPE svg PUBLIC "-//W3C//DTD SVG 1.1//EN" "http://www.w3.org/Graphics/SVG/1.1/DTD/svg11.dtd">
<svg width="100%" height="100%" viewBox="0 0 134 134" version="1.1" xmlns="http://www.w3.org/2000/svg" xmlns:xlink="http://www.w3.org/1999/xlink" xml:space="preserve" xmlns:serif="http://www.serif.com/" style="fill-rule:evenodd;clip-rule:evenodd;stroke-linejoin:round;stroke-miterlimit:2;">
    <g transform="matrix(5.55556,0,0,5.55556,0,0)">
        <path d="M21.825,0L2.175,0C0.975,0 0,0.975 0,2.175L0,21.825C0,23.025 0.975,24 2.175,24L21.825,24C23.025,24 24,23.025 24,21.825L24,2.175C24,0.975 23.025,0 21.825,0ZM8.02,4.667C8.818,4.667 9.488,5.297 9.488,6.107C9.488,6.927 8.818,7.551 8.02,7.551L8.02,7.578C7.217,7.578 6.566,6.928 6.566,6.123C6.566,5.318 7.216,4.668 8.021,4.668L8.02,4.667ZM17.836,18.482C16.352,18.482 15.632,17.597 15.632,16.392C15.632,16.046 15.676,15.679 15.782,15.312L16.492,12.767C16.58,12.487 16.602,12.227 16.602,11.992C16.602,11.172 16.102,10.677 15.306,10.677C14.293,10.677 13.626,11.404 13.281,12.807L11.901,18.342L9.487,18.342L9.919,16.602C9.211,17.768 8.224,18.487 7.009,18.487C5.542,18.487 4.852,17.645 4.852,16.374C4.856,16.009 4.899,15.644 4.982,15.289L4.982,15.291L6.082,10.801L4.375,10.801L4.893,8.896L8.993,8.896L7.373,15.301C7.268,15.711 7.223,16.051 7.223,16.287C7.223,16.697 7.425,16.817 7.74,16.891C7.935,16.931 9.465,16.903 10.3,15.051L11.36,10.801L9.637,10.801L10.157,8.926L13.877,8.926L13.397,11.086C14.044,9.886 15.334,8.731 16.609,8.731C17.959,8.731 19.084,9.706 19.084,11.551C19.084,12.085 19.004,12.616 18.844,13.126L18.154,15.602C18.094,15.856 18.05,16.067 18.05,16.262C18.05,16.696 18.23,16.907 18.544,16.907C18.858,16.907 19.279,16.667 19.744,15.347L20.687,15.707C20.132,17.671 19.111,18.481 17.837,18.481L17.836,18.482Z" style="fill:rgb(255,51,102);fill-rule:nonzero;"/>
    </g>
</svg>
