<?xml version="1.0" encoding="UTF-8" standalone="no"?>
<!DOCTYPE svg PUBLIC "-//W3C//DTD SVG 1.1//EN" "http://www.w3.org/Graphics/SVG/1.1/DTD/svg11.dtd">
<svg width="100%" height="100%" viewBox="0 0 134 100" version="1.1" xmlns="http://www.w3.org/2000/svg" xmlns:xlink="http://www.w3.org/1999/xlink" xml:space="preserve" xmlns:serif="http://www.serif.com/" style="fill-rule:evenodd;clip-rule:evenodd;stroke-linejoin:round;stroke-miterlimit:2;">
    <g transform="matrix(5.55556,0,0,5.55556,-0.000110156,-17.1606)">
        <path d="M19.724,20.273L19.747,20.228C19.768,20.191 19.785,20.151 19.8,20.111L19.802,20.106C19.873,19.912 19.892,19.703 19.856,19.499L19.857,19.506C19.818,19.285 19.738,19.074 19.622,18.883L19.627,18.891L14.309,9.537L13.497,8.116L12.69,9.537L7.375,18.891C7.273,19.079 7.204,19.283 7.171,19.495L7.17,19.506C7.127,19.746 7.155,19.994 7.25,20.219L7.247,20.211C7.261,20.246 7.278,20.28 7.297,20.313L7.295,20.309C7.455,20.584 7.795,20.911 8.545,20.911L18.445,20.911C18.602,20.911 19.37,20.879 19.725,20.274L19.724,20.273ZM13.496,10.956L18.356,19.505L8.638,19.505L13.496,10.956ZM23.746,18.891L16.729,6.529C16.657,6.399 16.252,5.742 15.547,5.742C15.23,5.742 14.775,5.877 14.405,6.527L13.498,8.117L14.305,9.538L15.555,7.325L22.497,19.507L19.857,19.507C19.891,19.711 19.871,19.921 19.799,20.115L19.802,20.107C19.787,20.151 19.767,20.193 19.745,20.233L19.747,20.229L19.724,20.274C19.369,20.879 18.602,20.911 18.452,20.911L22.581,20.911C22.733,20.911 23.498,20.879 23.853,20.274C24.01,19.999 24.123,19.537 23.746,18.892L23.746,18.891ZM7.302,20.308C7.286,20.278 7.271,20.247 7.257,20.216L7.255,20.21C7.157,19.986 7.128,19.738 7.171,19.498L7.17,19.505L1.499,19.505L9.929,4.671L12.696,9.536L13.498,8.116L11.086,3.866C11.019,3.744 10.611,3.089 9.909,3.089C9.592,3.089 9.137,3.226 8.766,3.876L0.227,18.89C0.155,19.02 -0.198,19.702 0.152,20.307C0.312,20.582 0.652,20.909 1.402,20.909L8.554,20.909C7.809,20.909 7.464,20.587 7.304,20.307L7.302,20.308Z" style="fill:rgb(0,197,142);fill-rule:nonzero;"/>
    </g>
</svg>
