<?xml version="1.0" encoding="UTF-8" standalone="no"?>
<!DOCTYPE svg PUBLIC "-//W3C//DTD SVG 1.1//EN" "http://www.w3.org/Graphics/SVG/1.1/DTD/svg11.dtd">
<svg width="100%" height="100%" viewBox="0 0 134 119" version="1.1" xmlns="http://www.w3.org/2000/svg" xmlns:xlink="http://www.w3.org/1999/xlink" xml:space="preserve" xmlns:serif="http://www.serif.com/" style="fill-rule:evenodd;clip-rule:evenodd;stroke-linejoin:round;stroke-miterlimit:2;">
    <g transform="matrix(5.55556,0,0,5.55556,0,-7.35397)">
        <path d="M12,9.861C10.827,9.861 9.861,10.827 9.861,12C9.861,13.173 10.827,14.139 12,14.139C13.173,14.139 14.139,13.173 14.139,12C14.139,10.827 13.173,9.861 12,9.861ZM6.008,16.255L5.536,16.135C2.018,15.246 0,13.737 0,11.996C0,10.255 2.018,8.746 5.536,7.857L6.008,7.738L6.141,8.206C6.497,9.434 6.953,10.63 7.504,11.784L7.605,11.997L7.504,12.21C6.952,13.363 6.496,14.56 6.141,15.788L6.008,16.255ZM5.317,8.95C2.643,9.701 1.002,10.85 1.002,11.996C1.002,13.141 2.643,14.29 5.317,15.042C5.644,14.002 6.039,12.984 6.499,11.996C6.038,11.008 5.643,9.99 5.317,8.95ZM17.992,16.255L17.859,15.786C17.503,14.558 17.047,13.362 16.495,12.209L16.394,11.996L16.495,11.783C17.047,10.63 17.503,9.433 17.859,8.205L17.992,7.737L18.465,7.856C21.982,8.745 24,10.254 24,11.996C24,13.738 21.982,15.246 18.465,16.135L17.992,16.255ZM17.501,11.996C17.981,13.035 18.378,14.056 18.683,15.042C21.358,14.29 22.998,13.141 22.998,11.996C22.998,10.85 21.357,9.702 18.683,8.95C18.356,9.99 17.962,11.008 17.501,11.996ZM5.31,8.945L5.177,8.478C4.188,4.992 4.488,2.494 6,1.622C7.483,0.766 9.864,1.777 12.359,4.338L12.699,4.687L12.359,5.036C11.472,5.958 10.662,6.95 9.937,8.003L9.802,8.196L9.567,8.216C8.291,8.317 7.025,8.521 5.782,8.826L5.31,8.945ZM7.206,2.315C6.938,2.315 6.701,2.373 6.501,2.488C5.507,3.061 5.331,5.053 6.016,7.741C7.082,7.504 8.162,7.337 9.249,7.24C9.876,6.348 10.562,5.498 11.301,4.696C9.741,3.177 8.264,2.315 7.206,2.315ZM16.795,22.677C16.794,22.677 16.794,22.677 16.795,22.677C15.37,22.677 13.54,21.604 11.641,19.654L11.301,19.305L11.641,18.956C12.527,18.034 13.337,17.041 14.062,15.988L14.197,15.795L14.431,15.775C15.708,15.675 16.974,15.471 18.218,15.166L18.69,15.047L18.824,15.515C19.811,18.999 19.512,21.498 18,22.369C17.633,22.577 17.217,22.683 16.795,22.677ZM12.699,19.296C14.259,20.815 15.736,21.677 16.794,21.677L16.795,21.677C17.062,21.677 17.3,21.619 17.499,21.504C18.493,20.931 18.67,18.938 17.984,16.25C16.918,16.487 15.838,16.655 14.75,16.751C14.123,17.644 13.438,18.494 12.699,19.296ZM18.69,8.945L18.218,8.826C16.974,8.52 15.708,8.316 14.431,8.216L14.197,8.196L14.062,8.003C13.337,6.95 12.528,5.957 11.641,5.036L11.301,4.687L11.641,4.338C14.135,1.778 16.515,0.767 18,1.622C19.512,2.494 19.812,4.992 18.824,8.477L18.69,8.945ZM14.75,7.24C15.892,7.344 16.977,7.513 17.984,7.741C18.67,5.053 18.493,3.061 17.499,2.488C16.511,1.917 14.654,2.792 12.699,4.696C13.438,5.498 14.123,6.348 14.75,7.24ZM7.206,22.677C6.784,22.683 6.368,22.577 6,22.369C4.488,21.498 4.188,19 5.177,15.515L5.309,15.047L5.781,15.166C6.936,15.457 8.21,15.662 9.566,15.775L9.801,15.795L9.935,15.988C10.661,17.041 11.471,18.034 12.357,18.956L12.697,19.305L12.357,19.654C10.459,21.604 8.629,22.677 7.206,22.677ZM6.016,16.25C5.33,18.938 5.507,20.931 6.501,21.504C7.488,22.067 9.344,21.199 11.301,19.296C10.562,18.493 9.877,17.643 9.249,16.751C8.162,16.655 7.082,16.487 6.016,16.25ZM12,16.878C11.177,16.878 10.331,16.842 9.484,16.772L9.249,16.752L9.114,16.559C8.635,15.871 8.185,15.163 7.764,14.437C7.345,13.711 6.956,12.967 6.598,12.209L6.498,11.996L6.598,11.783C6.956,11.025 7.345,10.281 7.764,9.555C8.178,8.839 8.633,8.125 9.114,7.433L9.249,7.24L9.484,7.22C11.159,7.078 12.842,7.078 14.517,7.22L14.751,7.24L14.885,7.433C15.844,8.81 16.686,10.265 17.402,11.783L17.503,11.996L17.402,12.209C16.688,13.728 15.846,15.183 14.885,16.559L14.751,16.752L14.517,16.772C13.67,16.842 12.823,16.878 12,16.878ZM9.803,15.794C11.283,15.905 12.717,15.905 14.198,15.794C15.025,14.585 15.759,13.316 16.394,11.996C15.76,10.676 15.026,9.406 14.197,8.198C12.734,8.087 11.266,8.087 9.803,8.198C8.974,9.406 8.24,10.675 7.606,11.996C8.242,13.315 8.976,14.585 9.803,15.794Z" style="fill:rgb(97,218,251);fill-rule:nonzero;"/>
    </g>
</svg>
