<?xml version="1.0" encoding="UTF-8" standalone="no"?>
<!DOCTYPE svg PUBLIC "-//W3C//DTD SVG 1.1//EN" "http://www.w3.org/Graphics/SVG/1.1/DTD/svg11.dtd">
<svg width="100%" height="100%" viewBox="0 0 115 134" version="1.1" xmlns="http://www.w3.org/2000/svg" xmlns:xlink="http://www.w3.org/1999/xlink" xml:space="preserve" xmlns:serif="http://www.serif.com/" style="fill-rule:evenodd;clip-rule:evenodd;stroke-linejoin:round;stroke-miterlimit:2;">
    <g transform="matrix(5.55556,0,0,5.55556,-9.52222,0)">
        <path d="M11.571,4.714L13.286,4.714L13.286,9.857L11.57,9.857L11.571,4.714ZM16.286,4.714L18,4.714L18,9.857L16.286,9.857L16.286,4.714ZM6,0L1.714,4.286L1.714,19.714L6.857,19.714L6.857,24L11.143,19.714L14.571,19.714L22.286,12L22.286,0L6,0ZM20.571,11.143L17.143,14.571L13.714,14.571L10.714,17.571L10.714,14.571L6.857,14.571L6.857,1.714L20.571,1.714L20.571,11.143Z" style="fill:rgb(145,70,255);fill-rule:nonzero;"/>
    </g>
</svg>
